<?xml version="1.0" encoding="utf-8"?>
<!-- Generator: Adobe Illustrator 25.4.1, SVG Export Plug-In . SVG Version: 6.00 Build 0)  -->
<svg version="1.0" id="Слой_1" xmlns="http://www.w3.org/2000/svg" xmlns:xlink="http://www.w3.org/1999/xlink" x="0px" y="0px"
	 viewBox="0 0 235.28 113.39" enable-background="new 0 0 235.28 113.39" xml:space="preserve">
<g>
	<g>
		<path fill="#F7C01A" d="M137.13,42.22H97.87c-1.45,0-2.61-1.17-2.61-2.6V37.3h44.48v2.32C139.74,41.05,138.57,42.22,137.13,42.22"
			/>
		<path fill="#523B2F" d="M94.89,28.33h45.22c0.88,0,1.59,0.71,1.59,1.59v3.72c0,0.87-0.72,1.58-1.59,1.58H94.89
			c-0.88,0-1.6-0.71-1.6-1.58v-3.72C93.29,29.04,94.01,28.33,94.89,28.33"/>
		<path fill="#F7C01A" d="M95.26,26.25v-0.02c0-0.22,0.03-0.44,0.08-0.65c0.81-7.06,10.42-12.63,22.16-12.63
			c11.74,0,21.35,5.57,22.16,12.63c0.06,0.21,0.08,0.43,0.08,0.65v0.02H95.26z"/>
		<path fill="#E20613" d="M117.62,4.94c1.44,1.99,3.48,2.23,1.22,5.04c-1.13,1.41,0.1,0.85,0.73,0.34c1.67-1.35,2.8-3.64,1.39-5.1
			c-1.74-1.8-2.56-1.74-1.42-4.47c0.37-0.89,0.54-1.02-0.3-0.29C117.95,1.58,116.51,3.44,117.62,4.94"/>
		<path fill="#E20613" d="M113.79,6.16c1.45,1.67,3.48,1.87,1.22,4.23c-1.14,1.18,0.1,0.71,0.73,0.28c1.67-1.13,2.8-3.05,1.39-4.27
			c-1.74-1.51-2.56-1.46-1.42-3.74c0.37-0.75,0.55-0.85-0.3-0.24C114.13,3.35,112.7,4.9,113.79,6.16"/>
	</g>
	<g>
		<path fill="#1D1D1B" d="M10.92,53.31v-2.46h7.29v2.46h5.78l5.11,4.28v6.88l-5.11,4.24h-5.78v2.11l2.68,0.7v5.3H8.25v-5.3l2.68-0.7
			v-2.11H5.11L0,64.46l0-6.88l5.11-4.28H10.92z M8.21,59.38l-0.92,0.74v1.75l0.92,0.77h2.71v-3.26H8.21z M18.22,59.38v3.26h2.68
			l0.92-0.77v-1.75l-0.92-0.74H18.22z"/>
		<path fill="#1D1D1B" d="M53.59,64.11l-5.11,4.25h-8.14v2.46l2.68,0.7v5.3H30.37v-5.33l2.68-0.7V58.32l-2.68-0.7v-5.37h18.11
			l5.11,4.28V64.11z M40.35,58.32v3.97h5.04l0.92-0.77v-2.46l-0.92-0.74H40.35z"/>
		<path fill="#1D1D1B" d="M77.59,71.48v5.33H65.08v-5.33l1.87-0.7l-0.63-2.17h-5.32l-0.6,2.17l1.73,0.7v5.33H51.55v-5.33l2.71-0.7
			l3.59-12.46l-2.29-0.7v-5.37H69.8l4.76,18.53L77.59,71.48z M62.01,64.39h3.14l-1.59-5.51L62.01,64.39z"/>
		<polygon fill="#1D1D1B" points="101.93,58.32 101.93,70.78 104.61,71.48 104.61,76.82 93.01,76.82 93.01,71.48 94.6,70.78 
			94.6,66.5 88.65,66.5 88.65,70.78 90.27,71.48 90.27,76.82 78.67,76.82 78.67,71.48 81.35,70.78 81.35,58.32 78.67,57.62 
			78.67,52.25 90.27,52.25 90.27,57.62 88.65,58.32 88.65,62.29 94.6,62.29 94.6,58.32 93.01,57.62 93.01,52.25 104.61,52.25 
			104.61,57.62 		"/>
		<polygon fill="#1D1D1B" points="127.92,58.32 123.94,61.62 128.83,70.78 131.34,71.48 131.34,76.82 119.6,76.82 119.6,71.48 
			121.37,70.78 118.62,65.87 115.8,68.22 115.8,70.78 117.56,71.48 117.56,76.82 105.58,76.82 105.58,71.48 108.26,70.78 
			108.26,58.32 105.58,57.62 105.58,52.25 117.49,52.25 117.49,57.62 115.8,58.32 115.8,63.1 121.29,58.32 119.57,57.62 
			119.57,52.25 131.34,52.25 131.34,57.62 		"/>
		<polygon fill="#1D1D1B" points="144.52,76.82 144.52,71.48 147.2,70.78 147.2,58.32 143.36,58.32 142.34,59.13 142.3,72.11 
			136.63,76.82 132.33,76.82 132.33,71.48 135.01,70.78 135.01,56.95 140.68,52.25 156.5,52.25 156.5,57.62 154.53,58.32 
			154.53,70.78 157.21,71.48 157.21,76.82 		"/>
		<polygon fill="#1D1D1B" points="181.8,58.32 181.8,70.78 184.48,71.48 184.48,76.82 172.89,76.82 172.89,71.48 174.47,70.78 
			174.47,64.74 168.52,70.36 168.52,70.78 170.14,71.48 170.14,76.82 158.55,76.82 158.55,71.48 161.23,70.78 161.23,58.32 
			158.55,57.62 158.55,52.25 170.14,52.25 170.14,57.62 168.52,58.32 168.52,64.39 174.47,58.78 174.47,58.32 172.89,57.62 
			172.89,52.25 184.48,52.25 184.48,57.62 		"/>
		<polygon fill="#1D1D1B" points="209.81,58.32 209.81,70.78 212.49,71.48 212.49,76.82 200.9,76.82 200.9,71.48 202.48,70.78 
			202.48,66.5 196.53,66.5 196.53,70.78 198.15,71.48 198.15,76.82 186.56,76.82 186.56,71.48 189.23,70.78 189.23,58.32 
			186.56,57.62 186.56,52.25 198.15,52.25 198.15,57.62 196.53,58.32 196.53,62.29 202.48,62.29 202.48,58.32 200.9,57.62 
			200.9,52.25 212.49,52.25 212.49,57.62 		"/>
		<path fill="#1D1D1B" d="M222.84,58.32h4.86l0.71,2.56H235v-4.63l-4.79-4h-9.47V57l-6.17,8.54v6.57l5.67,4.7H230
			c1.66-1.37,3.35-2.74,5-4.14v-4.46h-6.59l-0.71,2.56h-4.83l-1.06-0.84V59.13L222.84,58.32z"/>
		<polygon fill="#1D1D1B" points="214.71,62.36 212.84,61.49 214.32,55.45 214.32,52.43 218.97,52.43 218.97,56.44 		"/>
	</g>
	<g>
		<path fill="#1D1D1B" d="M48.75,94.51l-2.68-0.7v-5.37h22.8v7.93h-5.18l-0.7-1.86h-6.94v3.09h8.14l5.11,4.25v6.88L64.18,113H46.07
			v-5.37l2.68-0.7V94.51z M61.08,106.93l0.92-0.74v-2.46l-0.92-0.77h-5.04v3.96H61.08z"/>
		<polygon fill="#1D1D1B" points="73.41,94.51 70.73,93.81 70.73,88.44 82.36,88.44 82.36,93.81 80.73,94.51 80.73,96.75 
			81.62,97.49 86.8,97.49 86.8,94.51 85.18,93.81 85.18,88.44 96.73,88.44 96.73,93.81 94.05,94.51 94.05,108.3 88.38,113 78.8,113 
			73.79,108.86 73.79,104.4 80.35,104.4 81.05,106.96 85.7,106.96 86.76,106.12 86.76,102.82 78.44,102.82 73.41,98.68 		"/>
		<path fill="#1D1D1B" d="M121.59,100.3l-5.11,4.25h-8.14V107l2.68,0.7v5.3H98.37v-5.33l2.68-0.7V94.51l-2.68-0.7v-5.37h18.11
			l5.11,4.28V100.3z M108.34,94.51v3.97h5.04l0.92-0.77v-2.46l-0.92-0.74H108.34z"/>
		<polygon fill="#1D1D1B" points="139.59,98.58 138.88,94.09 132.96,94.09 132.96,106.96 136.35,107.67 136.35,113 123.03,113 
			123.03,107.67 125.7,106.96 125.7,94.51 123.03,93.81 123.03,88.44 144.77,88.44 144.77,98.58 		"/>
		<polygon fill="#1D1D1B" points="162.66,97.07 161.96,94.51 156.04,94.51 156.04,98.47 161.96,98.47 161.96,102.68 156.04,102.68 
			156.04,106.96 161.96,106.96 162.66,104.4 167.88,104.4 167.88,113 146.1,113 146.1,107.67 148.78,106.96 148.78,94.51 
			146.1,93.81 146.1,88.44 167.84,88.44 167.84,97.07 		"/>
		<path fill="#1D1D1B" d="M192.7,100.3l-5.11,4.25h-8.14V107l2.68,0.7v5.3h-12.65v-5.33l2.68-0.7V94.51l-2.68-0.7v-5.37h18.11
			l5.11,4.28V100.3z M179.45,94.51v3.97h5.04l0.92-0.77v-2.46l-0.92-0.74H179.45z"/>
		<path fill="#1D1D1B" d="M194.26,86.87c0.48,0.5,0.64,1.08,0.64,1.58c0,0.37-0.09,1.05-0.66,1.59c-0.36,0.35-0.91,0.66-1.6,0.66
			c-0.7,0-1.24-0.33-1.6-0.68c-0.35-0.35-0.65-0.87-0.65-1.57c0-0.25,0.04-0.67,0.33-1.17c0.41-0.67,1.1-1.08,1.92-1.08
			C193.25,86.19,193.82,86.43,194.26,86.87 M190.76,88.44c0,0.4,0.13,0.9,0.54,1.31c0.42,0.43,0.93,0.57,1.34,0.57
			c0.57,0,1.04-0.27,1.33-0.55c0.27-0.27,0.55-0.69,0.55-1.29c0-0.39-0.11-0.93-0.54-1.35c-0.36-0.37-0.83-0.56-1.35-0.56
			C191.66,86.56,190.76,87.35,190.76,88.44 M192.66,89.25v0.41h-1.15v-0.41h0.27v-1.7h-0.27v-0.39h1.18c0.42,0,0.96,0.05,0.96,0.7
			c0,0.1-0.01,0.49-0.42,0.59l0.4,0.79h0.29v0.41h-0.7l-0.57-1.1h-0.26v0.69H192.66z M192.39,88.16h0.17c0.18,0,0.45-0.01,0.45-0.3
			c0-0.3-0.3-0.3-0.46-0.3h-0.16V88.16z"/>
	</g>
</g>
</svg>
